# Blender v2.81 (sub 16) OBJ File: ''
# www.blender.org
mtllib Furip.mtl
o Cube
v 1.000000 0.200000 -0.500000
v 0.950000 -0.500000 -0.450000
v 1.000000 0.200000 0.500000
v 0.950000 -0.500000 0.450000
v -1.000000 0.200000 -0.500000
v -0.950000 -0.500000 -0.450000
v -1.000000 0.200000 0.500000
v -0.950000 -0.500000 0.450000
vt 0.000000 0.500000
vt 0.250000 0.500000
vt 0.250000 0.625000
vt 0.000000 0.625000
vt 0.618750 0.375000
vt 0.625000 0.462500
vt 0.375000 0.462500
vt 0.381250 0.375000
vt 0.368750 0.375000
vt 0.250000 0.462500
vt 0.256250 0.375000
vt 0.243750 0.368750
vt 0.006250 0.368750
vt 0.006250 0.256250
vt 0.243750 0.256250
vt 0.743750 0.375000
vt 0.750000 0.462500
vt 0.631250 0.375000
vt 0.243750 0.375000
vt -0.000000 0.462500
vt 0.006250 0.375000
vn 0.0000 1.0000 0.0000
vn 0.0000 -0.0712 0.9975
vn -0.9975 -0.0712 0.0000
vn 0.0000 -1.0000 0.0000
vn 0.9975 -0.0712 0.0000
vn 0.0000 -0.0712 -0.9975
usemtl (null)
s off
f 1/1/1 5/2/1 7/3/1 3/4/1
f 4/5/2 3/6/2 7/7/2 8/8/2
f 8/9/3 7/7/3 5/10/3 6/11/3
f 6/12/4 2/13/4 4/14/4 8/15/4
f 2/16/5 1/17/5 3/6/5 4/18/5
f 6/19/6 5/10/6 1/20/6 2/21/6
o Cube.001
v 1.050000 0.500000 -0.550000
v 1.050000 0.200000 -0.550000
v 1.050000 0.500000 0.550000
v 1.050000 0.200000 0.550000
v -1.050000 0.500000 -0.550000
v -1.050000 0.200000 -0.550000
v -1.050000 0.500000 0.550000
v -1.050000 0.200000 0.550000
vt 0.000000 0.750000
vt 0.500000 0.750000
vt 0.500000 1.000000
vt 0.000000 1.000000
vt 0.000000 1.000000
vt 0.500000 1.000000
vt 0.500000 0.750000
vt 0.000000 0.750000
vn 0.0000 1.0000 0.0000
vn 0.0000 0.0000 1.0000
vn -1.0000 0.0000 0.0000
vn 0.0000 -1.0000 0.0000
vn 1.0000 0.0000 0.0000
vn 0.0000 0.0000 -1.0000
usemtl Material.001
s off
f 9/22/7 13/23/7 15/24/7 11/25/7
f 12/26/8 11/25/8 15/24/8 16/27/8
f 16/27/9 15/24/9 13/23/9 14/28/9
f 14/28/10 10/29/10 12/26/10 16/27/10
f 10/29/11 9/22/11 11/25/11 12/26/11
f 14/28/12 13/23/12 9/22/12 10/29/12
