# Blender v2.81 (sub 16) OBJ File: ''
# www.blender.org
mtllib Clex.mtl
o 平面_平面.004
v 0.550000 0.575000 0.285000
v 0.000000 0.575000 0.505000
v 0.000000 0.025000 0.505000
v 0.550000 0.025000 0.285000
v -0.550000 0.575000 0.285000
v -0.550000 0.025000 0.285000
v 0.550000 -0.191585 0.544055
v -0.550000 -0.191585 0.544055
v -0.550000 -0.708416 0.355944
v 0.550000 -0.708416 0.355944
vt 1.000000 1.000000
vt 0.500000 1.000000
vt 0.500000 0.500000
vt 1.000000 0.500000
vt 0.000000 1.000000
vt 0.000000 0.500000
vt 1.000000 0.500000
vt 0.000000 0.500000
vt 0.000000 0.000000
vt 1.000000 0.000000
vn 0.3714 -0.0000 0.9285
vn -0.3714 -0.0000 0.9285
vn 0.0000 -0.3420 0.9397
usemtl None
s 1
f 1/1/1 2/2/1 3/3/1 4/4/1
f 3/3/2 2/2/2 5/5/2 6/6/2
f 7/7/3 8/8/3 9/9/3 10/10/3
