# Blender v2.81 (sub 16) OBJ File: ''
# www.blender.org
mtllib Vegun.mtl
o Cube
v 0.250000 0.500000 -1.000000
v 0.250000 -0.500000 -1.000000
v 0.250000 0.500000 1.000000
v -0.250000 0.500000 -1.000000
v -0.250000 -0.500000 -1.000000
v -0.250000 0.500000 1.000000
v 0.250000 0.000000 -1.000000
v -0.250000 0.000000 1.000000
v 0.250000 0.000000 1.000000
v -0.250000 0.000000 -1.000000
v -0.250000 0.500000 -0.500000
v 0.250000 -0.500000 -0.500000
v -0.250000 0.000000 -0.500000
v -0.250000 -0.500000 -0.500000
v 0.250000 0.500000 -0.500000
v 0.250000 0.000000 -0.500000
vt 0.625000 0.875000
vt 0.625000 1.000000
vt 0.500000 1.000000
vt 0.500000 0.875000
vt 0.125000 0.875000
vt 0.125000 1.000000
vt 0.000000 1.000000
vt 0.000000 0.875000
vt 0.875000 0.625000
vt 0.875000 1.000000
vt 0.750000 1.000000
vt 0.750000 0.625000
vt 0.750000 0.875000
vt 0.750000 1.000000
vt 0.625000 1.000000
vt 0.625000 0.875000
vt 0.750000 0.750000
vt 0.625000 0.750000
vt 0.125000 0.750000
vt 0.000000 0.750000
vt 0.750000 0.750000
vt 0.625000 0.750000
vt 0.625000 0.625000
vt 0.750000 0.625000
vt 1.000000 0.875000
vt 0.875000 0.875000
vt 0.875000 0.500000
vt 1.000000 0.500000
vt 1.000000 1.000000
vt 0.875000 1.000000
vt 0.750000 0.625000
vt 0.625000 0.625000
vt 0.625000 0.500000
vt 0.750000 0.500000
vt 0.500000 0.625000
vt 0.500000 0.750000
vt 0.375000 0.750000
vt 0.375000 0.625000
vt 0.500000 0.500000
vt 0.375000 0.500000
vt 0.000000 0.750000
vt 0.000000 0.625000
vn 0.0000 0.0000 1.0000
vn -1.0000 0.0000 0.0000
vn 0.0000 -1.0000 0.0000
vn 0.0000 0.0000 -1.0000
vn 0.0000 1.0000 0.0000
vn 1.0000 0.0000 -0.0000
usemtl Material
s off
f 9/1/1 3/2/1 6/3/1 8/4/1
f 13/5/2 11/6/2 4/7/2 10/8/2
f 8/9/3 13/10/3 16/11/3 9/12/3
f 6/3/2 11/6/2 13/5/2 8/4/2
f 10/13/4 4/14/4 1/15/4 7/16/4
f 5/17/4 10/13/4 7/16/4 2/18/4
f 14/19/2 13/5/2 10/8/2 5/20/2
f 16/21/1 13/22/1 14/23/1 12/24/1
f 15/25/5 11/26/5 6/27/5 3/28/5
f 1/29/5 4/30/5 11/26/5 15/25/5
f 5/31/3 2/32/3 12/33/3 14/34/3
f 7/35/6 1/36/6 15/37/6 16/38/6
f 2/39/6 7/35/6 16/38/6 12/40/6
f 16/38/6 15/37/6 3/41/6 9/42/6
